<svg width="329" height="329" viewBox="0 0 329 329" fill="none" xmlns="http://www.w3.org/2000/svg">
<g filter="url(#filter0_d_3908_45)">
<circle cx="164.5" cy="160.5" r="160.5" fill="#E3E3E3"/>
<path d="M220.929 193.443C214.661 185.03 205.711 179.004 195.557 176.359L195.24 176.291L187.924 188.636C187.919 190.279 187.264 191.854 186.101 193.017C184.939 194.179 183.363 194.834 181.719 194.839C178.306 194.839 175.514 192.048 172.256 183.834V183.636C172.256 181.579 171.439 179.607 169.985 178.153C168.53 176.698 166.557 175.881 164.5 175.881C162.443 175.881 160.47 176.698 159.015 178.153C157.561 179.607 156.744 181.579 156.744 183.636V183.84V183.828C153.269 192.048 150.452 194.833 147.045 194.833C145.401 194.828 143.825 194.173 142.663 193.01C141.5 191.848 140.845 190.273 140.84 188.629L133.754 176.26C123.529 178.86 114.498 184.869 108.151 193.294L108.064 193.412C105.549 197.525 104.148 202.222 104 207.041V207.085C104.031 208.015 104 209.101 104 210.186V222.593C104 225.884 105.308 229.039 107.635 231.366C109.962 233.693 113.119 235 116.41 235H212.59C215.881 235 219.038 233.693 221.365 231.366C223.692 229.039 225 225.884 225 222.593V210.186C225 209.107 224.969 208.015 225 207.085C224.844 202.211 223.419 197.462 220.867 193.307L220.936 193.431L220.929 193.443ZM131.917 118.971C131.917 137.085 143.21 163.698 164.494 163.698C185.405 163.698 197.071 137.085 197.071 118.971V118.568C197.071 114.291 196.228 110.056 194.591 106.105C192.954 102.153 190.554 98.5632 187.529 95.5389C184.504 92.5147 180.913 90.1158 176.96 88.4791C173.008 86.8424 168.772 86 164.494 86C160.216 86 155.98 86.8424 152.027 88.4791C148.075 90.1158 144.483 92.5147 141.458 95.5389C138.433 98.5632 136.034 102.153 134.397 106.105C132.759 110.056 131.917 114.291 131.917 118.568V118.99V118.971Z" fill="white"/>
</g>
<defs>
<filter id="filter0_d_3908_45" x="0" y="0" width="329" height="329" filterUnits="userSpaceOnUse" color-interpolation-filters="sRGB">
<feFlood flood-opacity="0" result="BackgroundImageFix"/>
<feColorMatrix in="SourceAlpha" type="matrix" values="0 0 0 0 0 0 0 0 0 0 0 0 0 0 0 0 0 0 127 0" result="hardAlpha"/>
<feOffset dy="4"/>
<feGaussianBlur stdDeviation="2"/>
<feComposite in2="hardAlpha" operator="out"/>
<feColorMatrix type="matrix" values="0 0 0 0 0 0 0 0 0 0 0 0 0 0 0 0 0 0 0.25 0"/>
<feBlend mode="normal" in2="BackgroundImageFix" result="effect1_dropShadow_3908_45"/>
<feBlend mode="normal" in="SourceGraphic" in2="effect1_dropShadow_3908_45" result="shape"/>
</filter>
</defs>
</svg>
