<svg width="29" height="29" viewBox="0 0 29 29" fill="none" xmlns="http://www.w3.org/2000/svg">
<path d="M13.2917 26.2816C3.80554 26.2816 2.71875 25.1948 2.71875 15.7087C2.71875 6.22253 3.80554 5.13574 13.2917 5.13574C13.792 5.13574 14.1979 5.54167 14.1979 6.04199C14.1979 6.54231 13.792 6.94824 13.2917 6.94824C4.85871 6.94824 4.53125 7.2757 4.53125 15.7087C4.53125 24.1416 4.85871 24.4691 13.2917 24.4691C21.7246 24.4691 22.0521 24.1416 22.0521 15.7087C22.0521 15.2083 22.458 14.8024 22.9583 14.8024C23.4587 14.8024 23.8646 15.2083 23.8646 15.7087C23.8646 25.1948 22.7778 26.2816 13.2917 26.2816Z" fill="#465A7B"/>
<path d="M12.5407 18.3897C12.0386 18.3897 11.5506 18.1926 11.1795 17.8215C10.6503 17.2923 10.4745 16.5241 10.7211 15.8173L11.6368 13.1911C11.8203 12.6637 12.1277 12.1746 12.5242 11.7781L20.6096 3.69262C21.8634 2.43769 24.0523 2.4365 25.3084 3.69262C25.9362 4.32039 26.2819 5.15466 26.2819 6.04204C26.2819 6.92999 25.9362 7.76426 25.3084 8.39145L17.223 16.4769C16.8265 16.8734 16.3374 17.1808 15.8093 17.3643L13.1838 18.28C12.972 18.3537 12.7554 18.3897 12.5407 18.3897ZM22.959 4.53161C22.5554 4.53161 22.1767 4.68855 21.8911 4.97411L13.8056 13.0596C13.6009 13.2643 13.4428 13.5162 13.3478 13.7876L12.4321 16.4143C12.425 16.4356 12.4073 16.4863 12.461 16.54C12.5141 16.5931 12.5655 16.5754 12.5867 16.5689L15.2128 15.6532C15.4848 15.5583 15.7367 15.4001 15.9415 15.1954L24.0269 7.10994C24.3125 6.82437 24.4694 6.44559 24.4694 6.04202C24.4694 5.63845 24.3125 5.25968 24.0269 4.97411C23.7413 4.68855 23.3626 4.53161 22.959 4.53161Z" fill="#465A7B"/>
</svg>
