<svg width="26" height="26" viewBox="0 0 26 26" fill="none" xmlns="http://www.w3.org/2000/svg">
<path d="M5.24989 2.54669C4.65247 2.54669 4.07952 2.78402 3.65708 3.20646C3.23464 3.6289 2.99731 4.20185 2.99731 4.79927C2.99731 5.39669 3.23464 5.96964 3.65708 6.39208C4.07952 6.81452 4.65247 7.05184 5.24989 7.05184C5.84731 7.05184 6.42026 6.81452 6.8427 6.39208C7.26514 5.96964 7.50247 5.39669 7.50247 4.79927C7.50247 4.20185 7.26514 3.6289 6.8427 3.20646C6.42026 2.78402 5.84731 2.54669 5.24989 2.54669ZM3.12982 8.90691C3.09468 8.90691 3.06097 8.92087 3.03612 8.94572C3.01127 8.97057 2.99731 9.00427 2.99731 9.03941V22.8199C2.99731 22.893 3.05668 22.9524 3.12982 22.9524H7.36996C7.4051 22.9524 7.43881 22.9384 7.46366 22.9136C7.48851 22.8887 7.50247 22.855 7.50247 22.8199V9.03941C7.50247 9.00427 7.48851 8.97057 7.46366 8.94572C7.43881 8.92087 7.4051 8.90691 7.36996 8.90691H3.12982ZM10.0201 8.90691C9.98491 8.90691 9.95121 8.92087 9.92636 8.94572C9.90151 8.97057 9.88755 9.00427 9.88755 9.03941V22.8199C9.88755 22.893 9.94691 22.9524 10.0201 22.9524H14.2602C14.2953 22.9524 14.329 22.9384 14.3539 22.9136C14.3787 22.8887 14.3927 22.855 14.3927 22.8199V15.3996C14.3927 14.8725 14.6021 14.3669 14.9748 13.9942C15.3476 13.6215 15.8531 13.4121 16.3803 13.4121C16.9074 13.4121 17.4129 13.6215 17.7857 13.9942C18.1584 14.3669 18.3678 14.8725 18.3678 15.3996V22.8199C18.3678 22.893 18.4272 22.9524 18.5003 22.9524H22.7405C22.7756 22.9524 22.8093 22.9384 22.8342 22.9136C22.859 22.8887 22.873 22.855 22.873 22.8199V13.6824C22.873 11.1097 20.6363 9.09771 18.0763 9.32986C17.2842 9.40197 16.5084 9.59798 15.7771 9.91076L14.3927 10.5044V9.03941C14.3927 9.00427 14.3787 8.97057 14.3539 8.94572C14.329 8.92087 14.2953 8.90691 14.2602 8.90691H10.0201Z" fill="white"/>
</svg>
