<svg width="37" height="37" viewBox="0 0 37 37" fill="none" xmlns="http://www.w3.org/2000/svg">
<g clip-path="url(#clip0_513_1729)">
<path d="M32.3474 6.06543H4.04367C3.50748 6.06543 2.99326 6.27843 2.61411 6.65757C2.23497 7.03671 2.02197 7.55094 2.02197 8.08713V28.3041C2.02197 28.8403 2.23497 29.3545 2.61411 29.7336C2.99326 30.1128 3.50748 30.3258 4.04367 30.3258H32.3474C32.8836 30.3258 33.3978 30.1128 33.777 29.7336C34.1561 29.3545 34.3691 28.8403 34.3691 28.3041V8.08713C34.3691 7.55094 34.1561 7.03671 33.777 6.65757C33.3978 6.27843 32.8836 6.06543 32.3474 6.06543ZM30.7907 28.3041H5.72168L12.7976 20.9855L11.342 19.5805L4.04367 27.1315V9.62362L16.6085 22.1278C16.9873 22.5043 17.4997 22.7157 18.0338 22.7157C18.5679 22.7157 19.0803 22.5043 19.4591 22.1278L32.3474 9.31025V27.0001L24.9076 19.5603L23.4823 20.9855L30.7907 28.3041ZM5.36788 8.08713H30.7098L18.0338 20.6924L5.36788 8.08713Z" fill="#456297"/>
</g>
<defs>
<clipPath id="clip0_513_1729">
<rect width="36.3905" height="36.3905" fill="white"/>
</clipPath>
</defs>
</svg>
