<svg width="321" height="321" viewBox="0 0 321 321" fill="none" xmlns="http://www.w3.org/2000/svg">
<circle cx="160.5" cy="160.5" r="160.5" fill="#E3E3E3"/>
<path d="M115.8 235V100.9C115.8 96.9483 117.37 93.1584 120.164 90.3641C122.958 87.5698 126.748 86 130.7 86H190.3C194.252 86 198.042 87.5698 200.836 90.3641C203.63 93.1584 205.2 96.9483 205.2 100.9V235M115.8 235H205.2M115.8 235H100.9C96.9483 235 93.1584 233.43 90.3641 230.636C87.5698 227.842 86 224.052 86 220.1V175.4C86 171.448 87.5698 167.658 90.3641 164.864C93.1584 162.07 96.9483 160.5 100.9 160.5H115.8M205.2 235H220.1C224.052 235 227.842 233.43 230.636 230.636C233.43 227.842 235 224.052 235 220.1V153.05C235 149.098 233.43 145.308 230.636 142.514C227.842 139.72 224.052 138.15 220.1 138.15H205.2M145.6 115.8H175.4M145.6 145.6H175.4M145.6 175.4H175.4M145.6 205.2H175.4" stroke="white" stroke-width="10.33" stroke-linecap="round" stroke-linejoin="round"/>
</svg>
