<svg width="24" height="24" viewBox="0 0 24 24" fill="none" xmlns="http://www.w3.org/2000/svg">
<path d="M11.039 23.751C1.77956 23.751 0.71875 22.6888 0.71875 13.4165C0.71875 4.14431 1.77956 3.08203 11.039 3.08203C11.5273 3.08203 11.9236 3.47881 11.9236 3.96785C11.9236 4.45689 11.5273 4.85366 11.039 4.85366C2.80756 4.85366 2.48793 5.17373 2.48793 13.4165C2.48793 21.6593 2.80756 21.9794 11.039 21.9794C19.2704 21.9794 19.59 21.6593 19.59 13.4165C19.59 12.9275 19.9862 12.5307 20.4746 12.5307C20.963 12.5307 21.3592 12.9275 21.3592 13.4165C21.3592 22.6888 20.2984 23.751 11.039 23.751Z" fill="#465A7B"/>
<path d="M10.3051 16.037C9.815 16.037 9.33873 15.8444 8.97649 15.4817C8.45991 14.9644 8.28828 14.2135 8.52902 13.5226L9.42282 10.9557C9.60194 10.4402 9.90198 9.96206 10.289 9.57452L18.1812 1.67139C19.405 0.44475 21.5416 0.443593 22.7677 1.67139C23.3805 2.285 23.7179 3.10046 23.7179 3.96782C23.7179 4.83576 23.3805 5.65122 22.7677 6.26426L14.8755 14.1674C14.4885 14.5549 14.0111 14.8554 13.4956 15.0348L10.9329 15.9298C10.7261 16.0019 10.5147 16.037 10.3051 16.037ZM20.4744 2.49146C20.0805 2.49146 19.7108 2.64485 19.432 2.92398L11.5398 10.8271C11.34 11.0272 11.1857 11.2735 11.0929 11.5388L10.1991 14.1062C10.1922 14.127 10.1749 14.1766 10.2274 14.2291C10.2792 14.281 10.3293 14.2637 10.35 14.2573L12.9134 13.3623C13.1789 13.2695 13.4248 13.1149 13.6246 12.9148L21.5168 5.01165C21.7956 4.73252 21.9487 4.36228 21.9487 3.96781C21.9487 3.57334 21.7956 3.20311 21.5168 2.92398C21.2381 2.64485 20.8684 2.49146 20.4744 2.49146Z" fill="#465A7B"/>
</svg>
