<svg width="33" height="35" viewBox="0 0 33 35" fill="none" xmlns="http://www.w3.org/2000/svg">
<g filter="url(#filter0_d_2493_38)">
<path d="M15.2917 26.2812C5.80554 26.2812 4.71875 25.1944 4.71875 15.7083C4.71875 6.22216 5.80554 5.13538 15.2917 5.13538C15.792 5.13538 16.1979 5.5413 16.1979 6.04163C16.1979 6.54195 15.792 6.94788 15.2917 6.94788C6.85871 6.94788 6.53125 7.27533 6.53125 15.7083C6.53125 24.1412 6.85871 24.4687 15.2917 24.4687C23.7246 24.4687 24.0521 24.1412 24.0521 15.7083C24.0521 15.208 24.458 14.802 24.9583 14.802C25.4587 14.802 25.8646 15.208 25.8646 15.7083C25.8646 25.1944 24.7778 26.2812 15.2917 26.2812Z" fill="#465A7B"/>
<path d="M14.5397 18.3893C14.0376 18.3893 13.5497 18.1922 13.1786 17.8211C12.6493 17.2919 12.4735 16.5237 12.7201 15.8169L13.6358 13.1908C13.8193 12.6633 14.1267 12.1742 14.5232 11.7777L22.6086 3.69226C23.8624 2.43732 26.0513 2.43614 27.3074 3.69226C27.9352 4.32002 28.281 5.15429 28.281 6.04167C28.281 6.92963 27.9352 7.7639 27.3074 8.39108L19.222 16.4765C18.8255 16.873 18.3364 17.1804 17.8083 17.3639L15.1828 18.2796C14.971 18.3534 14.7545 18.3893 14.5397 18.3893ZM24.958 4.53124C24.5545 4.53124 24.1757 4.68818 23.8901 4.97374L15.8047 13.0592C15.5999 13.2639 15.4418 13.5159 15.3468 13.7873L14.4311 16.414C14.424 16.4352 14.4063 16.486 14.46 16.5396C14.5131 16.5928 14.5645 16.575 14.5857 16.5686L17.2118 15.6529C17.4838 15.5579 17.7357 15.3998 17.9405 15.195L26.0259 7.10957C26.3115 6.824 26.4684 6.44523 26.4684 6.04166C26.4684 5.63809 26.3115 5.25931 26.0259 4.97374C25.7404 4.68818 25.3616 4.53124 24.958 4.53124Z" fill="#465A7B"/>
</g>
<defs>
<filter id="filter0_d_2493_38" x="-2" y="0" width="37" height="37" filterUnits="userSpaceOnUse" color-interpolation-filters="sRGB">
<feFlood flood-opacity="0" result="BackgroundImageFix"/>
<feColorMatrix in="SourceAlpha" type="matrix" values="0 0 0 0 0 0 0 0 0 0 0 0 0 0 0 0 0 0 127 0" result="hardAlpha"/>
<feOffset dy="4"/>
<feGaussianBlur stdDeviation="2"/>
<feComposite in2="hardAlpha" operator="out"/>
<feColorMatrix type="matrix" values="0 0 0 0 0 0 0 0 0 0 0 0 0 0 0 0 0 0 0.25 0"/>
<feBlend mode="normal" in2="BackgroundImageFix" result="effect1_dropShadow_2493_38"/>
<feBlend mode="normal" in="SourceGraphic" in2="effect1_dropShadow_2493_38" result="shape"/>
</filter>
</defs>
</svg>
