<svg width="31" height="31" viewBox="0 0 31 31" fill="none" xmlns="http://www.w3.org/2000/svg">
<path d="M12.268 16.5492H14.8394C20.4256 16.5492 23.5954 14.0335 24.6044 8.86115C24.637 8.69065 24.6664 8.52635 24.6912 8.36205C24.747 8.01175 24.7749 7.6971 24.7873 7.39485C24.7966 7.18715 24.8028 7.0647 24.8013 6.95C24.7997 6.39607 24.6858 5.84821 24.4665 5.33955C24.2665 4.88075 23.9643 4.4297 23.5163 3.91665C22.1942 2.41315 19.8909 1.5498 17.1396 1.5498H8.37745C8.07886 1.55017 7.79016 1.65694 7.56319 1.85096C7.33621 2.04498 7.18582 2.31355 7.13901 2.60845L5.55801 12.7935L3.59106 25.4803C3.57428 25.5877 3.58095 25.6975 3.61062 25.8021C3.6403 25.9067 3.69226 26.0036 3.76295 26.0862C3.83364 26.1689 3.92138 26.2352 4.02013 26.2807C4.11889 26.3262 4.22632 26.3498 4.33506 26.3498H8.63165L9.9476 18.5332C10.0329 17.9795 10.314 17.4748 10.7398 17.1108C11.1655 16.7467 11.7078 16.5474 12.268 16.5492ZM26.3776 9.4393C25.15 15.2844 21.1743 18.3859 14.8379 18.3859H12.268C12.1449 18.3857 12.0258 18.4297 11.9325 18.5099C11.8391 18.5902 11.7778 18.7013 11.7596 18.823L10.0468 29.4498H14.5527C14.8139 29.45 15.0666 29.3569 15.2653 29.1872C15.464 29.0176 15.5955 28.7825 15.6361 28.5245L15.6811 28.292L16.5413 22.8453L16.5971 22.5446C16.6378 22.2865 16.7693 22.0514 16.9679 21.8818C17.1666 21.7121 17.4193 21.619 17.6806 21.6192H18.3626C22.7801 21.6192 26.2381 19.8243 27.2487 14.6349C27.6641 12.4959 27.4533 10.7072 26.3776 9.4393Z" fill="black"/>
</svg>
