<svg width="36" height="36" viewBox="0 0 36 36" fill="none" xmlns="http://www.w3.org/2000/svg">
<g opacity="0.6">
<path d="M29.2446 11.9837L17.9991 22.9457L6.75363 11.9837C6.55271 11.7874 6.28299 11.6775 6.00213 11.6775C5.72127 11.6775 5.45155 11.7874 5.25063 11.9837C5.15335 12.079 5.07606 12.1928 5.0233 12.3183C4.97054 12.4439 4.94336 12.5787 4.94336 12.7149C4.94336 12.8511 4.97054 12.9859 5.0233 13.1115C5.07606 13.2371 5.15335 13.3508 5.25063 13.4462L17.2139 25.1102C17.424 25.3149 17.7058 25.4296 17.9991 25.4296C18.2925 25.4296 18.5743 25.3149 18.7844 25.1102L30.7476 13.4484C30.8456 13.353 30.9235 13.239 30.9767 13.113C31.0298 12.987 31.0572 12.8517 31.0572 12.7149C31.0572 12.5782 31.0298 12.4428 30.9767 12.3168C30.9235 12.1909 30.8456 12.0768 30.7476 11.9814C30.5467 11.7852 30.277 11.6753 29.9961 11.6753C29.7153 11.6753 29.4456 11.7852 29.2446 11.9814V11.9837Z" fill="black"/>
</g>
</svg>
