<svg width="22" height="22" viewBox="0 0 22 22" fill="none" xmlns="http://www.w3.org/2000/svg">
<g opacity="0.54">
<path d="M17.8723 7.32321L11 14.0222L4.12776 7.32321C4.00498 7.20328 3.84015 7.13614 3.66851 7.13614C3.49688 7.13614 3.33205 7.20328 3.20926 7.32321C3.14981 7.38146 3.10258 7.45099 3.07034 7.52773C3.03809 7.60446 3.02148 7.68686 3.02148 7.77009C3.02148 7.85332 3.03809 7.93572 3.07034 8.01245C3.10258 8.08918 3.14981 8.15871 3.20926 8.21696L10.5201 15.345C10.6485 15.4701 10.8207 15.5401 11 15.5401C11.1793 15.5401 11.3515 15.4701 11.4799 15.345L18.7908 8.21834C18.8506 8.16004 18.8982 8.09035 18.9307 8.01336C18.9632 7.93637 18.9799 7.85365 18.9799 7.77009C18.9799 7.68652 18.9632 7.60381 18.9307 7.52682C18.8982 7.44983 18.8506 7.38013 18.7908 7.32184C18.668 7.20191 18.5032 7.13477 18.3315 7.13477C18.1599 7.13477 17.995 7.20191 17.8723 7.32184V7.32321Z" fill="black"/>
</g>
</svg>
