<svg width="26" height="26" viewBox="0 0 26 26" fill="none" xmlns="http://www.w3.org/2000/svg">
<path d="M21.1222 8.65484L13.0005 16.5718L4.87871 8.65484C4.7336 8.5131 4.5388 8.43375 4.33596 8.43375C4.13311 8.43375 3.93832 8.5131 3.79321 8.65484C3.72295 8.72368 3.66713 8.80585 3.62902 8.89654C3.59092 8.98722 3.57129 9.0846 3.57129 9.18296C3.57129 9.28133 3.59092 9.37871 3.62902 9.46939C3.66713 9.56008 3.72295 9.64225 3.79321 9.71109L12.4333 18.1351C12.5851 18.283 12.7886 18.3658 13.0005 18.3658C13.2123 18.3658 13.4159 18.283 13.5676 18.1351L22.2077 9.71272C22.2785 9.64382 22.3347 9.56145 22.3731 9.47046C22.4115 9.37948 22.4313 9.28172 22.4313 9.18296C22.4313 9.08421 22.4115 8.98645 22.3731 8.89546C22.3347 8.80448 22.2785 8.72211 22.2077 8.65321C22.0626 8.51148 21.8678 8.43213 21.665 8.43213C21.4621 8.43213 21.2673 8.51148 21.1222 8.65321V8.65484Z" fill="white"/>
</svg>
