<svg width="39" height="39" viewBox="0 0 39 39" fill="none" xmlns="http://www.w3.org/2000/svg">
<path d="M19.0826 1.59033C22.8785 1.59033 26.5188 3.09821 29.2028 5.78226C31.8869 8.4663 33.3948 12.1066 33.3948 15.9025C33.3948 21.8277 28.8785 28.036 20.0368 34.6673C19.7615 34.8737 19.4267 34.9853 19.0826 34.9853C18.7386 34.9853 18.4038 34.8737 18.1285 34.6673C9.28678 28.036 4.77051 21.8277 4.77051 15.9025C4.77051 12.1066 6.27839 8.4663 8.96243 5.78226C11.6465 3.09821 15.2868 1.59033 19.0826 1.59033ZM19.0826 4.77081C16.1303 4.77081 13.299 5.9436 11.2114 8.03119C9.12378 10.1188 7.95098 12.9502 7.95098 15.9025C7.95098 20.212 11.3191 25.1831 18.2048 30.7012L19.0826 31.3945L19.9604 30.7012C26.8462 25.1831 30.2143 20.212 30.2143 15.9025C30.2143 12.9502 29.0415 10.1188 26.9539 8.03119C24.8663 5.9436 22.0349 4.77081 19.0826 4.77081ZM19.0826 12.722C19.9262 12.722 20.7351 13.0571 21.3316 13.6535C21.928 14.25 22.2631 15.0589 22.2631 15.9025C22.2631 16.746 21.928 17.5549 21.3316 18.1514C20.7351 18.7479 19.9262 19.0829 19.0826 19.0829C18.2391 19.0829 17.4302 18.7479 16.8337 18.1514C16.2372 17.5549 15.9022 16.746 15.9022 15.9025C15.9022 15.0589 16.2372 14.25 16.8337 13.6535C17.4302 13.0571 18.2391 12.722 19.0826 12.722Z" fill="#456297"/>
</svg>
