<svg width="22" height="21" viewBox="0 0 22 21" fill="none" xmlns="http://www.w3.org/2000/svg">
<path fill-rule="evenodd" clip-rule="evenodd" d="M21.0014 1.63138C21.0901 1.54264 21.1605 1.43729 21.2085 1.32135C21.2565 1.20541 21.2812 1.08114 21.2812 0.955641C21.2812 0.830145 21.2565 0.705877 21.2085 0.589933C21.1605 0.47399 21.0901 0.36864 21.0014 0.279901C20.9126 0.191161 20.8073 0.120769 20.6913 0.072744C20.5754 0.0247185 20.4511 0 20.3256 0C20.2001 0 20.0758 0.0247185 19.9599 0.072744C19.844 0.120769 19.7386 0.191161 19.6499 0.279901L10.7812 9.15043L1.91263 0.279901C1.82389 0.191161 1.71854 0.120769 1.6026 0.072744C1.48666 0.0247185 1.36239 9.35023e-10 1.23689 0C1.11139 -9.35023e-10 0.987127 0.0247185 0.871183 0.072744C0.75524 0.120769 0.64989 0.191161 0.561151 0.279901C0.472411 0.36864 0.402019 0.47399 0.353994 0.589933C0.305968 0.705877 0.28125 0.830145 0.28125 0.955641C0.28125 1.08114 0.305968 1.20541 0.353994 1.32135C0.402019 1.43729 0.472411 1.54264 0.561151 1.63138L9.43168 10.5L0.561151 19.3686C0.381933 19.5478 0.28125 19.7909 0.28125 20.0444C0.28125 20.2978 0.381933 20.5409 0.561151 20.7201C0.740368 20.8993 0.98344 21 1.23689 21C1.49034 21 1.73341 20.8993 1.91263 20.7201L10.7812 11.8496L19.6499 20.7201C19.8291 20.8993 20.0722 21 20.3256 21C20.5791 21 20.8221 20.8993 21.0014 20.7201C21.1806 20.5409 21.2812 20.2978 21.2812 20.0444C21.2812 19.7909 21.1806 19.5478 21.0014 19.3686L12.1308 10.5L21.0014 1.63138Z" fill="#465A7B"/>
</svg>
