<svg width="27" height="26" viewBox="0 0 27 26" fill="none" xmlns="http://www.w3.org/2000/svg">
<path d="M13.5915 17.5197C14.716 17.5197 15.7945 17.073 16.5897 16.2778C17.3849 15.4826 17.8316 14.4041 17.8316 13.2795C17.8316 12.155 17.3849 11.0765 16.5897 10.2813C15.7945 9.48613 14.716 9.0394 13.5915 9.0394C12.4669 9.0394 11.3884 9.48613 10.5932 10.2813C9.79805 11.0765 9.35132 12.155 9.35132 13.2795C9.35132 14.4041 9.79805 15.4826 10.5932 16.2778C11.3884 17.073 12.4669 17.5197 13.5915 17.5197Z" stroke="white" stroke-width="1.3629" stroke-linecap="round" stroke-linejoin="round"/>
<path d="M4.05127 17.5197V9.03944C4.05127 7.63374 4.60968 6.28562 5.60366 5.29164C6.59763 4.29767 7.94575 3.73926 9.35145 3.73926H17.8317C19.2374 3.73926 20.5856 4.29767 21.5795 5.29164C22.5735 6.28562 23.1319 7.63374 23.1319 9.03944V17.5197C23.1319 18.9254 22.5735 20.2735 21.5795 21.2675C20.5856 22.2615 19.2374 22.8199 17.8317 22.8199H9.35145C7.94575 22.8199 6.59763 22.2615 5.60366 21.2675C4.60968 20.2735 4.05127 18.9254 4.05127 17.5197Z" stroke="white" stroke-width="1.3629"/>
<path d="M19.4219 7.4601L19.4326 7.4483" stroke="white" stroke-width="1.3629" stroke-linecap="round" stroke-linejoin="round"/>
</svg>
