<svg width="36" height="36" viewBox="0 0 36 36" fill="none" xmlns="http://www.w3.org/2000/svg">
<g opacity="0.6">
<path d="M29.2456 11.9837L18.0001 22.9457L6.75461 11.9837C6.55369 11.7874 6.28397 11.6775 6.00311 11.6775C5.72225 11.6775 5.45253 11.7874 5.25161 11.9837C5.15433 12.079 5.07704 12.1928 5.02428 12.3183C4.97151 12.4439 4.94434 12.5787 4.94434 12.7149C4.94434 12.8511 4.97151 12.9859 5.02428 13.1115C5.07704 13.2371 5.15433 13.3508 5.25161 13.4462L17.2149 25.1102C17.425 25.3149 17.7067 25.4296 18.0001 25.4296C18.2935 25.4296 18.5753 25.3149 18.7854 25.1102L30.7486 13.4484C30.8466 13.353 30.9245 13.239 30.9776 13.113C31.0308 12.987 31.0582 12.8517 31.0582 12.7149C31.0582 12.5782 31.0308 12.4428 30.9776 12.3168C30.9245 12.1909 30.8466 12.0768 30.7486 11.9814C30.5477 11.7852 30.278 11.6753 29.9971 11.6753C29.7163 11.6753 29.4465 11.7852 29.2456 11.9814V11.9837Z" fill="black"/>
</g>
</svg>
