<svg width="36" height="36" viewBox="0 0 36 36" fill="none" xmlns="http://www.w3.org/2000/svg">
<g opacity="0.6">
<path d="M6.75439 24.0163L17.9999 13.0543L29.2454 24.0163C29.4463 24.2126 29.716 24.3225 29.9969 24.3225C30.2778 24.3225 30.5475 24.2126 30.7484 24.0163C30.8457 23.921 30.923 23.8072 30.9757 23.6817C31.0285 23.5561 31.0557 23.4213 31.0557 23.2851C31.0557 23.1489 31.0285 23.0141 30.9757 22.8885C30.923 22.7629 30.8457 22.6492 30.7484 22.5538L18.7851 10.8898C18.575 10.6851 18.2933 10.5704 17.9999 10.5704C17.7065 10.5704 17.4247 10.6851 17.2146 10.8898L5.25139 22.5516C5.15341 22.647 5.07554 22.761 5.02237 22.887C4.9692 23.013 4.94181 23.1483 4.94181 23.2851C4.94181 23.4218 4.9692 23.5572 5.02237 23.6832C5.07554 23.8091 5.15341 23.9232 5.25139 24.0186C5.45231 24.2148 5.72203 24.3247 6.00289 24.3247C6.28375 24.3247 6.55347 24.2148 6.75439 24.0186L6.75439 24.0163Z" fill="black"/>
</g>
</svg>
