<svg width="200" height="46" viewBox="0 0 200 46" fill="none" xmlns="http://www.w3.org/2000/svg">
<g clip-path="url(#clip0_3194_1814)">
<path d="M2.61708 43.6723H28.6727V45.9999H0.00195312" fill="#231F20"/>
<path d="M2.61719 20.7029H16.5539V23.0305H2.61719" fill="#231F20"/>
<path d="M0.00195312 -0.000152588H28.2581V2.32741H2.61708" fill="#231F20"/>
<path d="M27.5239 21.6523C27.5239 22.9692 26.4077 24.0411 25.0364 24.0411C23.665 24.0411 22.5488 22.9692 22.5488 21.6523C22.5488 20.3354 23.665 19.2635 25.0364 19.2635C26.4396 19.2941 27.5239 20.3354 27.5239 21.6523Z" fill="#231F20"/>
<path d="M40.3223 0.42861L43.3201 5.05311L72.0865 45.9999H74.3508V-0.000152588H71.6719V41.4366L42.5866 -0.000152588H40.3223V0.42861Z" fill="#231F20"/>
<path d="M45.2339 43.611C45.2339 44.928 44.1177 45.9999 42.7464 45.9999C41.375 45.9999 40.2588 44.928 40.2588 43.611C40.2588 42.2941 41.375 41.2222 42.7464 41.2222C44.1177 41.2222 45.2339 42.3248 45.2339 43.611Z" fill="#231F20"/>
<path d="M133.753 -0.000152588V2.32741H133.785V45.9999H136.4V2.32741H152.186V-0.000152588H133.753Z" fill="#231F20"/>
<path d="M196.971 -0.000152588L180.643 24.623L179.271 26.7974V45.9999H181.95V26.8587L200.001 -0.000152588H196.971Z" fill="#231F20"/>
<path d="M168.748 2.38866C168.748 3.70557 167.631 4.77748 166.26 4.77748C164.889 4.77748 163.772 3.70557 163.772 2.38866C163.772 1.07175 164.889 -0.000152588 166.26 -0.000152588C167.631 -0.000152588 168.748 1.07175 168.748 2.38866Z" fill="#231F20"/>
<path d="M104.115 26.8587L122.166 -0.000152588H119.136L102.808 24.623L101.437 26.7974V45.9999H104.115V26.8587Z" fill="#231F20"/>
<path d="M90.9126 2.38866C90.9126 3.70557 89.7964 4.77748 88.4251 4.77748C87.0537 4.77748 85.9375 3.70557 85.9375 2.38866C85.9375 1.07175 87.0537 -0.000152588 88.4251 -0.000152588C89.7964 -0.000152588 90.9126 1.07175 90.9126 2.38866Z" fill="#231F20"/>
</g>
<defs>
<clipPath id="clip0_3194_1814">
<rect width="200" height="46" fill="white"/>
</clipPath>
</defs>
</svg>
