<?xml version="1.0" encoding="utf-8"?>
<!-- Generator: Adobe Illustrator 17.1.0, SVG Export Plug-In . SVG Version: 6.00 Build 0)  -->
<!DOCTYPE svg PUBLIC "-//W3C//DTD SVG 1.1//EN" "http://www.w3.org/Graphics/SVG/1.1/DTD/svg11.dtd">
<svg version="1.1" id="Livello_1" xmlns="http://www.w3.org/2000/svg" xmlns:xlink="http://www.w3.org/1999/xlink" x="0px" y="0px"
	 viewBox="0 0 1092.8 283.4" enable-background="new 0 0 1092.8 283.4" xml:space="preserve">
<path fill="#231F20" d="M344.6,216.6v-0.3 M352.8,209h81.7v7.6h-89.9 M352.8,134h73.7v7.6h-73.7 M344.6,66.4h88.6V74h-80.4"/>
<rect x="714.4" y="66.4" fill="#231F20" width="8.2" height="150.1"/>
<polygon fill="#231F20" points="315,74 315,66.4 207.9,66.4 207.9,74 257.3,74 257.3,74 265.5,74 265.5,74 "/>
<rect x="257.3" y="105.8" fill="#231F20" width="8.2" height="110.8"/>
<path fill="#231F20" d="M494.6,145.5c28.3,0,46.2-16,46.2-39.5s-17.7-39.5-46.2-39.5h-24.4V74h24.2c24.2,0,38,13.4,38,32.4
	c0,19-13.8,32.2-38,32.2h-24.2v6.9h0l60.1,71.1h10.2l-60.5-71.1H494.6z"/>
<polygon fill="#231F20" points="802.8,66.4 802.8,74 802.9,74 802.9,216.6 811.1,216.6 811.1,74 860.6,74 860.6,66.4 "/>
<line fill="#231F20" x1="99" y1="216.6" x2="99" y2="216.3"/>
<polyline fill="#231F20" points="96.3,209 178,209 178,216.6 88.1,216.6 "/>
<polyline fill="#231F20" points="96.3,134 140,134 140,141.6 96.3,141.6 "/>
<polyline fill="#231F20" points="88.1,66.4 176.7,66.4 176.7,74 96.3,74 "/>
<path fill="#231F20" d="M174.4,137.1c0,4.3-3.5,7.8-7.8,7.8c-4.3,0-7.8-3.5-7.8-7.8c0-4.3,3.5-7.8,7.8-7.8
	C171,129.4,174.4,132.8,174.4,137.1"/>
<polygon fill="#231F20" points="672.4,66.4 672.4,201.7 581.2,66.4 574.1,66.4 574.1,67.8 583.5,82.9 673.7,216.6 680.8,216.6 
	680.8,66.4 "/>
<path fill="#231F20" d="M589.5,210c0,4.3-3.5,7.8-7.8,7.8s-7.8-3.5-7.8-7.8c0-4.3,3.5-7.8,7.8-7.8S589.5,205.8,589.5,210"/>
<path fill="#231F20" d="M770.2,74.2c0,4.3-3.5,7.8-7.8,7.8s-7.8-3.5-7.8-7.8c0-4.3,3.5-7.8,7.8-7.8S770.2,69.9,770.2,74.2"/>
<polygon fill="#231F20" points="996.5,66.4 945.3,146.8 945.3,146.8 941,153.9 941,153.9 941,216.6 949.4,216.6 949.4,154.1 
	1006,66.4 "/>
<path fill="#231F20" d="M908,74.2c0,4.3-3.5,7.8-7.8,7.8s-7.8-3.5-7.8-7.8c0-4.3,3.5-7.8,7.8-7.8S908,69.9,908,74.2"/>
</svg>
