<svg width="38" height="38" viewBox="0 0 38 38" fill="none" xmlns="http://www.w3.org/2000/svg">
<path d="M34.9516 9.33696C33.7534 9.88162 32.4618 10.2395 31.1234 10.4107C32.4929 9.58594 33.5511 8.27876 34.0491 6.70702C32.7574 7.48511 31.3257 8.02977 29.8163 8.34101C28.5869 7.0027 26.8595 6.22461 24.8988 6.22461C21.2417 6.22461 18.2539 9.21246 18.2539 12.9006C18.2539 13.4297 18.3161 13.9432 18.4251 14.4256C12.8851 14.1455 7.95202 11.4845 4.6685 7.45399C4.09271 8.43438 3.76592 9.58594 3.76592 10.7998C3.76592 13.1185 4.93305 15.1726 6.73821 16.3397C5.63333 16.3397 4.60625 16.0285 3.70367 15.5617V15.6083C3.70367 18.8452 6.00681 21.5529 9.05691 22.1598C8.07765 22.4278 7.04959 22.4651 6.05349 22.2688C6.47616 23.5954 7.30394 24.7562 8.42046 25.588C9.53698 26.4198 10.8861 26.8808 12.2782 26.9062C9.91845 28.7743 6.99342 29.784 3.98378 29.7695C3.45468 29.7695 2.92558 29.7384 2.39648 29.6761C5.35321 31.5747 8.87017 32.6796 12.6361 32.6796C24.8988 32.6796 31.637 22.5022 31.637 13.6787C31.637 13.383 31.637 13.1029 31.6214 12.8072C32.9286 11.8735 34.0491 10.6908 34.9516 9.33696Z" fill="black"/>
</svg>
