<svg width="38" height="38" viewBox="0 0 38 38" fill="none" xmlns="http://www.w3.org/2000/svg">
<path d="M12.1379 3.1123H25.2097C30.1895 3.1123 34.2355 7.15836 34.2355 12.1381V25.21C34.2355 27.6038 33.2846 29.8995 31.5919 31.5922C29.8993 33.2849 27.6035 34.2358 25.2097 34.2358H12.1379C7.15811 34.2358 3.11206 30.1897 3.11206 25.21V12.1381C3.11206 9.74432 4.06299 7.44857 5.75566 5.7559C7.44833 4.06324 9.74408 3.1123 12.1379 3.1123ZM11.8266 6.22465C10.3408 6.22465 8.91588 6.81489 7.86526 7.86551C6.81464 8.91613 6.22441 10.3411 6.22441 11.8269V25.5212C6.22441 28.618 8.72985 31.1234 11.8266 31.1234H25.521C27.0068 31.1234 28.4317 30.5332 29.4823 29.4826C30.533 28.432 31.1232 27.007 31.1232 25.5212V11.8269C31.1232 8.73009 28.6177 6.22465 25.521 6.22465H11.8266ZM26.8437 8.55891C27.3596 8.55891 27.8544 8.76385 28.2192 9.12865C28.584 9.49345 28.7889 9.98823 28.7889 10.5041C28.7889 11.02 28.584 11.5148 28.2192 11.8796C27.8544 12.2444 27.3596 12.4493 26.8437 12.4493C26.3278 12.4493 25.833 12.2444 25.4682 11.8796C25.1034 11.5148 24.8985 11.02 24.8985 10.5041C24.8985 9.98823 25.1034 9.49345 25.4682 9.12865C25.833 8.76385 26.3278 8.55891 26.8437 8.55891ZM18.6738 10.8932C20.7374 10.8932 22.7165 11.7129 24.1757 13.1721C25.6349 14.6313 26.4547 16.6104 26.4547 18.674C26.4547 20.7377 25.6349 22.7168 24.1757 24.1759C22.7165 25.6351 20.7374 26.4549 18.6738 26.4549C16.6102 26.4549 14.6311 25.6351 13.1719 24.1759C11.7127 22.7168 10.8929 20.7377 10.8929 18.674C10.8929 16.6104 11.7127 14.6313 13.1719 13.1721C14.6311 11.7129 16.6102 10.8932 18.6738 10.8932ZM18.6738 14.0055C17.4356 14.0055 16.2482 14.4974 15.3727 15.3729C14.4971 16.2484 14.0053 17.4359 14.0053 18.674C14.0053 19.9122 14.4971 21.0997 15.3727 21.9752C16.2482 22.8507 17.4356 23.3426 18.6738 23.3426C19.912 23.3426 21.0994 22.8507 21.9749 21.9752C22.8505 21.0997 23.3423 19.9122 23.3423 18.674C23.3423 17.4359 22.8505 16.2484 21.9749 15.3729C21.0994 14.4974 19.912 14.0055 18.6738 14.0055Z" fill="black"/>
</svg>
