<svg width="38" height="38" viewBox="0 0 38 38" fill="none" xmlns="http://www.w3.org/2000/svg">
<g clip-path="url(#clip0_513_1721)">
<path fill-rule="evenodd" clip-rule="evenodd" d="M18.6743 6.22461C20.0048 6.22461 21.3696 6.25885 22.6923 6.31487L24.2547 6.38956L25.7502 6.47827L27.1508 6.57319L28.4299 6.67279C29.8181 6.77904 31.1244 7.37143 32.1189 8.34574C33.1134 9.32004 33.7325 10.6139 33.8672 11.9996L33.9295 12.6609L34.0462 14.0771C34.1551 15.5445 34.236 17.1443 34.236 18.674C34.236 20.2037 34.1551 21.8035 34.0462 23.2709L33.9295 24.6871C33.9092 24.9143 33.889 25.1337 33.8672 25.3484C33.7324 26.7344 33.1131 28.0284 32.1183 29.0027C31.1235 29.9771 29.8168 30.5693 28.4284 30.6752L27.1523 30.7732L25.7518 30.8697L24.2547 30.9584L22.6923 31.0331C21.3538 31.0913 20.0141 31.1214 18.6743 31.1234C17.3345 31.1214 15.9948 31.0913 14.6562 31.0331L13.0938 30.9584L11.5984 30.8697L10.1978 30.7732L8.91863 30.6752C7.53045 30.569 6.2242 29.9766 5.22968 29.0023C4.23516 28.028 3.61609 26.7341 3.48136 25.3484L3.41912 24.6871L3.3024 23.2709C3.18341 21.7414 3.12009 20.2081 3.11255 18.674C3.11255 17.1443 3.19347 15.5445 3.3024 14.0771L3.41912 12.6609C3.43935 12.4337 3.45958 12.2143 3.48136 11.9996C3.61603 10.6141 4.23489 9.32048 5.22909 8.34621C6.22329 7.37193 7.52917 6.77939 8.91708 6.67279L10.1947 6.57319L11.5953 6.47827L13.0923 6.38956L14.6547 6.31487C15.9938 6.25672 17.3339 6.22663 18.6743 6.22461ZM15.5619 14.9003V22.4477C15.5619 23.1667 16.34 23.6148 16.9625 23.2569L23.4984 19.4832C23.6406 19.4013 23.7588 19.2834 23.8409 19.1414C23.9231 18.9993 23.9663 18.8381 23.9663 18.674C23.9663 18.5099 23.9231 18.3487 23.8409 18.2066C23.7588 18.0646 23.6406 17.9467 23.4984 17.8648L16.9625 14.0926C16.8205 14.0106 16.6594 13.9675 16.4955 13.9675C16.3315 13.9676 16.1705 14.0108 16.0285 14.0928C15.8866 14.1748 15.7687 14.2927 15.6868 14.4348C15.6049 14.5768 15.5618 14.7379 15.5619 14.9018V14.9003Z" fill="black"/>
</g>
<defs>
<clipPath id="clip0_513_1721">
<rect width="37.3482" height="37.3482" fill="white"/>
</clipPath>
</defs>
</svg>
