<svg width="36" height="36" viewBox="0 0 36 36" fill="none" xmlns="http://www.w3.org/2000/svg">
<path opacity="0.2" d="M3.28161 16.5543C3.10176 16.5071 2.94162 16.4038 2.82438 16.2595C2.70714 16.1152 2.63889 15.9372 2.62953 15.7515C2.62017 15.5658 2.67017 15.382 2.7723 15.2266C2.87443 15.0712 3.02338 14.9524 3.19756 14.8873L30.7149 4.63507C30.8672 4.57837 31.0323 4.5652 31.1917 4.59704C31.3511 4.62888 31.4985 4.70447 31.6174 4.81535C31.7363 4.92622 31.822 5.06801 31.8648 5.22482C31.9076 5.38163 31.906 5.54727 31.86 5.70319L23.5532 33.8684C23.5006 34.0452 23.3934 34.201 23.247 34.3134C23.1006 34.4257 22.9224 34.4889 22.7379 34.494C22.5535 34.499 22.3721 34.4456 22.2198 34.3415C22.0674 34.2373 21.9519 34.0876 21.8897 33.9139L16.9781 20.1369L3.28161 16.5543Z" fill="white"/>
<path fill-rule="evenodd" clip-rule="evenodd" d="M1.53064 13.0528L15.2289 16.6354L20.137 30.4124C20.1992 30.5862 20.3147 30.7358 20.467 30.84C20.6194 30.9442 20.8007 30.9976 20.9852 30.9925C21.1697 30.9875 21.3479 30.9242 21.4943 30.8119C21.6407 30.6995 21.7478 30.5438 21.8004 30.3669L30.109 2.20173C30.155 2.04581 30.1567 1.88016 30.1138 1.72335C30.071 1.56654 29.9853 1.42476 29.8664 1.31388C29.7476 1.203 29.6002 1.12741 29.4408 1.09557C29.2814 1.06373 29.1162 1.0769 28.9639 1.13361L1.44659 11.3858C1.2724 11.4509 1.12345 11.5697 1.02132 11.7251C0.919194 11.8805 0.869189 12.0644 0.878553 12.2501C0.887916 12.4358 0.956162 12.6137 1.0734 12.758C1.19064 12.9023 1.35079 13.0056 1.53064 13.0528ZM4.65271 12.06L27.9343 3.38542L20.8829 27.2903L16.7225 15.611C16.6745 15.4771 16.5945 15.3568 16.4896 15.2607C16.3846 15.1646 16.2578 15.0955 16.1201 15.0595L4.65271 12.06Z" fill="white"/>
<path d="M28.0166 2.26367L29.2546 3.50164L15.7595 16.9968L14.5215 15.7588L28.0166 2.26367Z" fill="white"/>
</svg>
