<svg width="38" height="38" viewBox="0 0 38 38" fill="none" xmlns="http://www.w3.org/2000/svg">
<path d="M10.8001 7.7809C10.7997 8.60634 10.4714 9.39782 9.88745 9.9812C9.30348 10.5646 8.51168 10.8921 7.68623 10.8917C6.86079 10.8913 6.06931 10.563 5.48592 9.979C4.90254 9.39503 4.57503 8.60323 4.57544 7.77778C4.57585 6.95234 4.90416 6.16086 5.48813 5.57748C6.0721 4.99409 6.8639 4.66658 7.68934 4.66699C8.51479 4.66741 9.30626 4.99571 9.88965 5.57968C10.473 6.16365 10.8005 6.95545 10.8001 7.7809ZM10.8935 13.1964H4.66881V32.6797H10.8935V13.1964ZM20.7285 13.1964H14.535V32.6797H20.6663V22.4556C20.6663 16.76 28.0892 16.2309 28.0892 22.4556V32.6797H34.2361V20.3392C34.2361 10.7376 23.2495 11.0955 20.6663 15.8108L20.7285 13.1964Z" fill="black"/>
</svg>
