<svg width="287" height="121" viewBox="0 0 287 121" fill="none" xmlns="http://www.w3.org/2000/svg">
<g filter="url(#filter0_d_1939_10)">
<rect x="11" y="11" width="257" height="91" rx="21.0299" fill="#456297"/>
</g>
<path d="M49.48 67.72C48.0133 67.72 46.52 67.5333 45 67.16C43.48 66.8133 42.2133 66.3467 41.2 65.76L41.4 60.32H41.8L43.04 62.92C43.4133 63.6667 43.8133 64.3333 44.24 64.92C44.6667 65.48 45.2533 65.92 46 66.24C46.5333 66.5067 47.04 66.6933 47.52 66.8C48.0267 66.88 48.5867 66.92 49.2 66.92C50.8267 66.92 52.1067 66.48 53.04 65.6C54 64.72 54.48 63.5867 54.48 62.2C54.48 60.8933 54.16 59.88 53.52 59.16C52.88 58.4133 51.8533 57.6933 50.44 57L48.8 56.28C46.5067 55.2667 44.7067 54.1067 43.4 52.8C42.12 51.4667 41.48 49.7067 41.48 47.52C41.48 45.9467 41.88 44.5867 42.68 43.44C43.5067 42.2933 44.64 41.4133 46.08 40.8C47.5467 40.1867 49.2533 39.88 51.2 39.88C52.6133 39.88 53.9467 40.0667 55.2 40.44C56.48 40.8133 57.5867 41.32 58.52 41.96L58.28 46.76H57.88L56.24 43.76C55.7867 42.8267 55.3333 42.1733 54.88 41.8C54.4267 41.4 53.9067 41.12 53.32 40.96C52.9733 40.8533 52.6533 40.7867 52.36 40.76C52.0667 40.7067 51.6933 40.68 51.24 40.68C49.88 40.68 48.7333 41.08 47.8 41.88C46.8667 42.6533 46.4 43.7067 46.4 45.04C46.4 46.4 46.76 47.4933 47.48 48.32C48.2 49.12 49.2533 49.84 50.64 50.48L52.48 51.28C55.04 52.4 56.88 53.6 58 54.88C59.12 56.1333 59.68 57.76 59.68 59.76C59.68 62.1067 58.7867 64.0267 57 65.52C55.24 66.9867 52.7333 67.72 49.48 67.72ZM67.4994 67.6C65.9527 67.6 64.646 67.16 63.5794 66.28C62.5394 65.4 62.0194 64.1333 62.0194 62.48C62.0194 61.2267 62.6594 60.08 63.9394 59.04C65.2194 57.9733 67.2327 57.1733 69.9794 56.64C70.406 56.56 70.886 56.48 71.4194 56.4C71.9527 56.2933 72.5127 56.1867 73.0994 56.08V52.92C73.0994 51.1067 72.8727 49.84 72.4194 49.12C71.9927 48.3733 71.3127 48 70.3794 48C69.7394 48 69.2327 48.2133 68.8594 48.64C68.486 49.04 68.246 49.7467 68.1394 50.76L68.0594 51.2C68.006 52.3467 67.726 53.1867 67.2194 53.72C66.7127 54.2533 66.086 54.52 65.3394 54.52C64.646 54.52 64.0727 54.3067 63.6194 53.88C63.166 53.4533 62.9394 52.88 62.9394 52.16C62.9394 51.0667 63.3127 50.1467 64.0594 49.4C64.8327 48.6533 65.846 48.0933 67.0994 47.72C68.3527 47.3467 69.7127 47.16 71.1794 47.16C73.5527 47.16 75.3794 47.7467 76.6594 48.92C77.966 50.0667 78.6194 51.9467 78.6194 54.56V63.4C78.6194 64.6 79.1794 65.2 80.2994 65.2H81.1794L81.5394 65.52C81.0327 66.16 80.4727 66.6533 79.8594 67C79.2727 67.3467 78.4327 67.52 77.3394 67.52C76.166 67.52 75.2327 67.2533 74.5394 66.72C73.8727 66.16 73.4327 65.4267 73.2194 64.52C72.4194 65.3733 71.5927 66.1067 70.7394 66.72C69.9127 67.3067 68.8327 67.6 67.4994 67.6ZM69.9394 65.16C70.4727 65.16 70.966 65.04 71.4194 64.8C71.8994 64.5333 72.4594 64.1333 73.0994 63.6V56.88C72.8327 56.9333 72.566 56.9867 72.2994 57.04C72.0327 57.0933 71.726 57.1467 71.3794 57.2C70.1527 57.52 69.166 58.0667 68.4194 58.84C67.6994 59.5867 67.3394 60.6 67.3394 61.88C67.3394 62.9733 67.5927 63.8 68.0994 64.36C68.606 64.8933 69.2194 65.16 69.9394 65.16ZM90.5413 67.12L83.4613 50.12C83.0879 49.2133 82.4479 48.6133 81.5413 48.32L80.9813 48.16V47.76H91.3412V48.16L90.6213 48.32C89.5813 48.5867 89.2613 49.28 89.6613 50.4L93.8613 61.56L97.7813 50.48C97.9946 49.9467 98.0479 49.5067 97.9413 49.16C97.8346 48.8133 97.5146 48.56 96.9813 48.4L95.9813 48.16V47.76H101.781V48.16L100.621 48.44C100.115 48.5733 99.7146 48.7733 99.4213 49.04C99.1546 49.3067 98.9279 49.7067 98.7413 50.24L92.8613 67.12H90.5413ZM111.778 47.16C113.511 47.16 114.991 47.52 116.218 48.24C117.444 48.9333 118.378 49.8933 119.018 51.12C119.684 52.32 120.018 53.6933 120.018 55.24C120.018 55.5333 120.004 55.84 119.978 56.16C119.951 56.4533 119.898 56.72 119.818 56.96H107.898C107.924 59.84 108.431 61.92 109.418 63.2C110.431 64.4533 111.924 65.08 113.898 65.08C115.231 65.08 116.311 64.8667 117.138 64.44C117.964 64.0133 118.738 63.3867 119.458 62.56L119.858 62.92C119.031 64.3867 117.924 65.5333 116.538 66.36C115.178 67.1867 113.538 67.6 111.618 67.6C109.724 67.6 108.044 67.2 106.578 66.4C105.111 65.5733 103.964 64.4 103.138 62.88C102.311 61.36 101.898 59.5467 101.898 57.44C101.898 55.2533 102.378 53.4 103.338 51.88C104.298 50.3333 105.524 49.16 107.018 48.36C108.538 47.56 110.124 47.16 111.778 47.16ZM111.658 47.96C110.884 47.96 110.218 48.2 109.658 48.68C109.124 49.1333 108.698 49.96 108.378 51.16C108.084 52.3333 107.924 54 107.898 56.16H114.738C115.004 53.2533 114.898 51.16 114.418 49.88C113.938 48.6 113.018 47.96 111.658 47.96ZM130.722 76.2V75.8L131.202 75.64C132.189 75.3733 132.682 74.7333 132.682 73.72V51.96C132.682 51.3733 132.575 50.9333 132.362 50.64C132.175 50.3467 131.815 50.1467 131.282 50.04L130.722 49.92V49.52L137.522 47.2L137.922 47.6L138.282 48.84C139.162 48.3067 140.135 47.8933 141.202 47.6C142.295 47.3067 143.415 47.16 144.562 47.16C146.855 47.16 148.669 48.04 150.002 49.8C151.362 51.5333 152.042 54.0267 152.042 57.28C152.042 60.48 151.295 63 149.802 64.84C148.335 66.68 146.255 67.6 143.562 67.6C141.455 67.6 139.682 67.2933 138.242 66.68V73.6C138.242 74.6667 138.722 75.3333 139.682 75.6L140.442 75.8V76.2H130.722ZM141.642 66.44C142.975 66.44 144.029 65.7467 144.802 64.36C145.602 62.9733 146.002 60.6667 146.002 57.44C146.002 54.2133 145.629 51.96 144.882 50.68C144.135 49.3733 143.055 48.72 141.642 48.72C140.655 48.72 139.562 49.04 138.362 49.68V65.8C139.375 66.2267 140.469 66.44 141.642 66.44ZM153.811 67V66.6L154.291 66.44C155.251 66.12 155.731 65.4533 155.731 64.44V43.08C155.731 42.52 155.637 42.1067 155.451 41.84C155.264 41.5733 154.904 41.3733 154.371 41.24L153.771 41.08V40.68L160.811 38.96L161.451 39.32L161.291 44.96V49.96C162.224 49.1867 163.224 48.5333 164.291 48C165.384 47.44 166.584 47.16 167.891 47.16C169.624 47.16 170.997 47.6533 172.011 48.64C173.051 49.6267 173.571 51.1467 173.571 53.2V64.48C173.571 65.0133 173.677 65.44 173.891 65.76C174.104 66.08 174.477 66.32 175.011 66.48L175.331 66.6V67H165.971V66.6L166.451 66.48C167.411 66.16 167.891 65.48 167.891 64.44V51.88C167.891 50.8133 167.704 50.08 167.331 49.68C166.984 49.28 166.357 49.08 165.451 49.08C164.864 49.08 164.224 49.2 163.531 49.44C162.837 49.6533 162.131 50.04 161.411 50.6V64.52C161.411 65.56 161.891 66.2267 162.851 66.52L163.171 66.6V67H153.811ZM187.014 67.6C184.987 67.6 183.227 67.1867 181.734 66.36C180.24 65.5067 179.08 64.3067 178.254 62.76C177.454 61.2133 177.054 59.4 177.054 57.32C177.054 55.24 177.48 53.44 178.334 51.92C179.214 50.4 180.4 49.2267 181.894 48.4C183.414 47.5733 185.12 47.16 187.014 47.16C188.907 47.16 190.6 47.5733 192.094 48.4C193.587 49.2 194.76 50.36 195.614 51.88C196.494 53.4 196.934 55.2133 196.934 57.32C196.934 59.4267 196.52 61.2533 195.694 62.8C194.894 64.32 193.747 65.5067 192.254 66.36C190.787 67.1867 189.04 67.6 187.014 67.6ZM187.014 66.8C187.947 66.8 188.694 66.5333 189.254 66C189.814 65.4667 190.214 64.52 190.454 63.16C190.72 61.8 190.854 59.88 190.854 57.4C190.854 54.8933 190.72 52.96 190.454 51.6C190.214 50.24 189.814 49.2933 189.254 48.76C188.694 48.2267 187.947 47.96 187.014 47.96C186.08 47.96 185.32 48.2267 184.734 48.76C184.174 49.2933 183.76 50.24 183.494 51.6C183.254 52.96 183.134 54.8933 183.134 57.4C183.134 59.88 183.254 61.8 183.494 63.16C183.76 64.52 184.174 65.4667 184.734 66C185.32 66.5333 186.08 66.8 187.014 66.8ZM206.134 67.6C204.428 67.6 203.094 67.1733 202.134 66.32C201.201 65.4667 200.734 64.1067 200.734 62.24V48.56H197.974V48.16L198.934 48C199.761 47.8133 200.468 47.5467 201.054 47.2C201.668 46.8533 202.268 46.3867 202.854 45.8L206.134 42.16H206.534L206.414 47.76H210.894V48.56H206.374V62.96C206.374 63.8933 206.574 64.6 206.974 65.08C207.401 65.56 207.934 65.8 208.574 65.8C209.134 65.8 209.628 65.6667 210.054 65.4C210.481 65.1067 210.908 64.72 211.334 64.24L211.734 64.64C211.201 65.5467 210.468 66.2667 209.534 66.8C208.601 67.3333 207.468 67.6 206.134 67.6ZM222.99 67.6C220.964 67.6 219.204 67.1867 217.71 66.36C216.217 65.5067 215.057 64.3067 214.23 62.76C213.43 61.2133 213.03 59.4 213.03 57.32C213.03 55.24 213.457 53.44 214.31 51.92C215.19 50.4 216.377 49.2267 217.87 48.4C219.39 47.5733 221.097 47.16 222.99 47.16C224.884 47.16 226.577 47.5733 228.07 48.4C229.564 49.2 230.737 50.36 231.59 51.88C232.47 53.4 232.91 55.2133 232.91 57.32C232.91 59.4267 232.497 61.2533 231.67 62.8C230.87 64.32 229.724 65.5067 228.23 66.36C226.764 67.1867 225.017 67.6 222.99 67.6ZM222.99 66.8C223.924 66.8 224.67 66.5333 225.23 66C225.79 65.4667 226.19 64.52 226.43 63.16C226.697 61.8 226.83 59.88 226.83 57.4C226.83 54.8933 226.697 52.96 226.43 51.6C226.19 50.24 225.79 49.2933 225.23 48.76C224.67 48.2267 223.924 47.96 222.99 47.96C222.057 47.96 221.297 48.2267 220.71 48.76C220.15 49.2933 219.737 50.24 219.47 51.6C219.23 52.96 219.11 54.8933 219.11 57.4C219.11 59.88 219.23 61.8 219.47 63.16C219.737 64.52 220.15 65.4667 220.71 66C221.297 66.5333 222.057 66.8 222.99 66.8Z" fill="white"/>
<defs>
<filter id="filter0_d_1939_10" x="0" y="0" width="287" height="121" filterUnits="userSpaceOnUse" color-interpolation-filters="sRGB">
<feFlood flood-opacity="0" result="BackgroundImageFix"/>
<feColorMatrix in="SourceAlpha" type="matrix" values="0 0 0 0 0 0 0 0 0 0 0 0 0 0 0 0 0 0 127 0" result="hardAlpha"/>
<feOffset dx="4" dy="4"/>
<feGaussianBlur stdDeviation="7.5"/>
<feComposite in2="hardAlpha" operator="out"/>
<feColorMatrix type="matrix" values="0 0 0 0 0 0 0 0 0 0 0 0 0 0 0 0 0 0 0.25 0"/>
<feBlend mode="normal" in2="BackgroundImageFix" result="effect1_dropShadow_1939_10"/>
<feBlend mode="normal" in="SourceGraphic" in2="effect1_dropShadow_1939_10" result="shape"/>
</filter>
</defs>
</svg>
