<svg width="38" height="38" viewBox="0 0 38 38" fill="none" xmlns="http://www.w3.org/2000/svg">
<path d="M33.2739 26.2241L34.0955 27.0504L33.2723 26.2241H33.2739ZM13.6935 22.8753L14.5137 22.0489L13.692 22.8753H13.6935ZM7.28481 6.42319L6.46469 5.59841L7.28636 6.42474L7.28481 6.42319ZM25.8276 21.5767L26.5374 20.8731L24.8925 19.2205L24.1873 19.9241L25.8276 21.5767ZM28.9123 20.578L31.8806 22.1918L32.9912 20.1446L30.0245 18.5324L28.9123 20.578ZM32.4506 25.3977L30.245 27.5925L31.8868 29.2436L34.0924 27.0504L32.4506 25.3977ZM28.8999 28.2977C26.6477 28.5089 20.823 28.321 14.5137 22.0489L12.8703 23.7C19.7543 30.5452 26.3075 30.8807 29.1174 30.6182L28.8983 28.2977H28.8999ZM14.5137 22.0489C8.50101 16.0689 7.50382 11.041 7.37956 8.85869L5.05278 8.99072C5.20811 11.7369 6.44294 17.31 12.8703 23.7L14.5137 22.0489ZM16.6494 12.4498L17.0952 12.0056L15.4549 10.3545L15.0091 10.7972L16.6509 12.4483L16.6494 12.4498ZM17.4493 6.35951L15.4922 3.74383L13.6267 5.14175L15.5838 7.75588L17.4493 6.35951ZM8.90485 3.17378L6.46624 5.59686L8.10959 7.24952L10.5466 4.82644L8.90485 3.17378ZM15.8293 11.6235C15.006 10.7972 15.006 10.7972 15.006 10.8003H15.0029L14.9983 10.8065C14.9249 10.8813 14.8589 10.963 14.801 11.0503C14.7171 11.1746 14.6255 11.3377 14.5478 11.5443C14.3587 12.0775 14.3116 12.6508 14.4111 13.2078C14.6193 14.5514 15.545 16.3267 17.9153 18.6846L19.5586 17.0319C17.339 14.8263 16.8109 13.4843 16.7131 12.8506C16.6665 12.5492 16.7146 12.4001 16.7286 12.3659C16.7364 12.3442 16.7395 12.3426 16.7286 12.3566C16.7149 12.3782 16.6993 12.3984 16.682 12.4172L16.6665 12.4327C16.6614 12.4376 16.6563 12.4422 16.6509 12.4467L15.8277 11.6235H15.8293ZM17.9153 18.6846C20.2871 21.0424 22.0718 21.9619 23.4169 22.167C24.105 22.2726 24.6595 22.1887 25.0804 22.0318C25.3158 21.9447 25.536 21.821 25.7328 21.6653C25.7595 21.6429 25.7854 21.6196 25.8105 21.5954L25.8213 21.5861L25.826 21.5814L25.8276 21.5783C25.8276 21.5783 25.8291 21.5767 25.0074 20.7504C24.1842 19.9241 24.1889 19.9225 24.1889 19.9225L24.192 19.9194L24.1951 19.9163L24.2044 19.9085L24.2199 19.893C24.2386 19.8763 24.2583 19.8607 24.279 19.8464C24.2945 19.8355 24.2898 19.8402 24.2681 19.8495C24.2293 19.8635 24.077 19.9117 23.7711 19.8651C23.128 19.7656 21.7767 19.2375 19.5586 17.0319L17.9153 18.6846ZM15.4922 3.74227C13.9079 1.62985 10.7952 1.29434 8.90485 3.17378L10.5466 4.82644C11.373 4.00477 12.8392 4.0902 13.6267 5.14175L15.4907 3.74227H15.4922ZM7.38111 8.86025C7.35004 8.32282 7.59701 7.76054 8.10959 7.25107L6.46469 5.59841C5.63059 6.42785 4.97356 7.60211 5.05278 8.99072L7.38111 8.86025ZM30.245 27.5925C29.8194 28.0181 29.3597 28.2573 28.9015 28.2992L29.1174 30.6182C30.259 30.5111 31.1925 29.9364 31.8884 29.2452L30.245 27.5925ZM17.0952 12.0056C18.6251 10.485 18.7385 8.08207 17.4509 6.36106L15.5854 7.75744C16.2114 8.59464 16.1182 9.69279 15.4534 10.356L17.0952 12.0056ZM31.8821 22.1934C33.1512 22.883 33.3484 24.5077 32.4522 25.3993L34.0955 27.0504C36.1769 24.9799 35.5354 21.527 32.9927 20.1462L31.8821 22.1934ZM26.5374 20.8747C27.1338 20.2813 28.0938 20.1353 28.9139 20.5795L30.026 18.5339C28.3423 17.6175 26.2547 17.8707 24.8941 19.222L26.5374 20.8747Z" fill="#456297"/>
</svg>
