<svg width="33" height="33" viewBox="0 0 33 33" fill="none" xmlns="http://www.w3.org/2000/svg">
<path fill-rule="evenodd" clip-rule="evenodd" d="M4.77034 15.7711C4.57722 15.9645 4.46875 16.2266 4.46875 16.4998C4.46875 16.7731 4.57722 17.0352 4.77034 17.2286L13.0203 25.4786C13.1148 25.5799 13.2286 25.6612 13.3551 25.7175C13.4816 25.7739 13.6182 25.8042 13.7566 25.8067C13.8951 25.8091 14.0326 25.7836 14.161 25.7318C14.2894 25.6799 14.4061 25.6027 14.504 25.5048C14.6019 25.4068 14.6791 25.2902 14.731 25.1618C14.7829 25.0334 14.8083 24.8958 14.8059 24.7574C14.8035 24.6189 14.7732 24.4824 14.7168 24.3559C14.6604 24.2294 14.5792 24.1155 14.4778 24.0211L7.98784 17.5311L27.4991 17.5311C27.7726 17.5311 28.0349 17.4224 28.2283 17.229C28.4217 17.0357 28.5303 16.7733 28.5303 16.4998C28.5303 16.2263 28.4217 15.964 28.2283 15.7706C28.0349 15.5772 27.7726 15.4686 27.4991 15.4686L7.98784 15.4686L14.4778 8.9786C14.5792 8.88418 14.6604 8.77033 14.7168 8.64383C14.7732 8.51734 14.8035 8.38078 14.8059 8.24231C14.8083 8.10385 14.7829 7.96631 14.731 7.8379C14.6791 7.70949 14.6019 7.59284 14.504 7.49492C14.4061 7.39699 14.2894 7.31979 14.161 7.26793C14.0326 7.21606 13.8951 7.19059 13.7566 7.19303C13.6182 7.19547 13.4816 7.22578 13.3551 7.28215C13.2286 7.33851 13.1148 7.41978 13.0203 7.52109L4.77034 15.7711Z" fill="black"/>
</svg>
