<svg width="321" height="321" viewBox="0 0 321 321" fill="none" xmlns="http://www.w3.org/2000/svg">
<circle cx="160.5" cy="160.5" r="160.5" fill="#E3E3E3"/>
<path d="M216.929 193.443C210.661 185.03 201.711 179.004 191.557 176.359L191.24 176.291L183.924 188.636C183.919 190.279 183.264 191.854 182.101 193.017C180.939 194.179 179.363 194.834 177.719 194.839C174.306 194.839 171.514 192.048 168.256 183.834V183.636C168.256 181.579 167.439 179.607 165.985 178.153C164.53 176.698 162.557 175.881 160.5 175.881C158.443 175.881 156.47 176.698 155.015 178.153C153.561 179.607 152.744 181.579 152.744 183.636V183.84V183.828C149.269 192.048 146.452 194.833 143.045 194.833C141.401 194.828 139.825 194.173 138.663 193.01C137.5 191.848 136.845 190.273 136.84 188.629L129.754 176.26C119.529 178.86 110.498 184.869 104.151 193.294L104.064 193.412C101.549 197.525 100.148 202.222 100 207.041V207.085C100.031 208.015 100 209.101 100 210.186V222.593C100 225.884 101.308 229.039 103.635 231.366C105.962 233.693 109.119 235 112.41 235H208.59C211.881 235 215.038 233.693 217.365 231.366C219.692 229.039 221 225.884 221 222.593V210.186C221 209.107 220.969 208.015 221 207.085C220.844 202.211 219.419 197.462 216.867 193.307L216.936 193.431L216.929 193.443ZM127.917 118.971C127.917 137.085 139.21 163.698 160.494 163.698C181.405 163.698 193.071 137.085 193.071 118.971V118.568C193.071 114.291 192.228 110.056 190.591 106.105C188.954 102.153 186.554 98.5632 183.529 95.5389C180.504 92.5147 176.913 90.1158 172.96 88.4791C169.008 86.8424 164.772 86 160.494 86C156.216 86 151.98 86.8424 148.027 88.4791C144.075 90.1158 140.483 92.5147 137.458 95.5389C134.433 98.5632 132.034 102.153 130.397 106.105C128.759 110.056 127.917 114.291 127.917 118.568V118.99V118.971Z" fill="white"/>
</svg>
