<svg width="83" height="83" viewBox="0 0 83 83" fill="none" xmlns="http://www.w3.org/2000/svg">
<path fill-rule="evenodd" clip-rule="evenodd" d="M81.1192 7.11968C81.4632 6.77567 81.7361 6.36727 81.9223 5.9178C82.1084 5.46833 82.2043 4.98659 82.2043 4.50008C82.2043 4.01358 82.1084 3.53184 81.9223 3.08237C81.7361 2.63289 81.4632 2.22449 81.1192 1.88048C80.7752 1.53647 80.3668 1.26359 79.9173 1.07741C79.4678 0.891235 78.9861 0.79541 78.4996 0.79541C78.0131 0.79541 77.5313 0.891235 77.0819 1.07741C76.6324 1.26359 76.224 1.53647 75.88 1.88048L41.4996 36.2683L7.1192 1.88048C6.77519 1.53647 6.36678 1.26359 5.91731 1.07741C5.46784 0.891235 4.9861 0.79541 4.4996 0.79541C4.01309 0.79541 3.53135 0.891235 3.08188 1.07741C2.63241 1.26359 2.22401 1.53647 1.87999 1.88048C1.53598 2.22449 1.2631 2.63289 1.07692 3.08237C0.890746 3.53184 0.794922 4.01358 0.794922 4.50008C0.794922 4.98659 0.890746 5.46833 1.07692 5.9178C1.2631 6.36727 1.53598 6.77567 1.87999 7.11968L36.2678 41.5001L1.87999 75.8805C1.18523 76.5752 0.794922 77.5175 0.794922 78.5001C0.794922 79.4826 1.18523 80.4249 1.87999 81.1197C2.57476 81.8144 3.51705 82.2048 4.4996 82.2048C5.48214 82.2048 6.42443 81.8144 7.1192 81.1197L41.4996 46.7319L75.88 81.1197C76.5748 81.8144 77.5171 82.2048 78.4996 82.2048C79.4821 82.2048 80.4244 81.8144 81.1192 81.1197C81.8139 80.4249 82.2043 79.4826 82.2043 78.5001C82.2043 77.5175 81.8139 76.5752 81.1192 75.8805L46.7314 41.5001L81.1192 7.11968Z" fill="#465A7B"/>
</svg>
