<svg width="103" height="82" viewBox="0 0 103 82" fill="none" xmlns="http://www.w3.org/2000/svg">
<path d="M91.8922 10.8253H77.356L70.1814 1.20431C69.9043 0.833267 69.5288 0.529161 69.0883 0.319051C68.6479 0.108941 68.1562 -0.000658186 67.6569 2.97367e-06H35.3431C34.8438 -0.000658186 34.3521 0.108941 33.9117 0.319051C33.4712 0.529161 33.0957 0.833267 32.8186 1.20431L25.6389 10.8253H11.1078C8.16186 10.8253 5.33654 11.8708 3.25341 13.7317C1.17029 15.5927 0 18.1167 0 20.7485V71.2664C0 73.8982 1.17029 76.4222 3.25341 78.2832C5.33654 80.1441 8.16186 81.1896 11.1078 81.1896H91.8922C94.8381 81.1896 97.6635 80.1441 99.7466 78.2832C101.83 76.4222 103 73.8982 103 71.2664V20.7485C103 18.1167 101.83 15.5927 99.7466 13.7317C97.6635 11.8708 94.8381 10.8253 91.8922 10.8253ZM96.9412 71.2664C96.9412 72.4627 96.4092 73.61 95.4624 74.4558C94.5155 75.3017 93.2312 75.777 91.8922 75.777H11.1078C9.76876 75.777 8.48452 75.3017 7.53765 74.4558C6.59077 73.61 6.05882 72.4627 6.05882 71.2664V20.7485C6.05882 19.5522 6.59077 18.4049 7.53765 17.559C8.48452 16.7131 9.76876 16.2379 11.1078 16.2379H27.2647C27.764 16.2386 28.2557 16.129 28.6962 15.9189C29.1366 15.7088 29.5121 15.4047 29.7892 15.0336L36.9639 5.41264H66.0311L73.2108 15.0336C73.4879 15.4047 73.8634 15.7088 74.3038 15.9189C74.7442 16.129 75.236 16.2386 75.7353 16.2379H91.8922C93.2312 16.2379 94.5155 16.7131 95.4624 17.559C96.4092 18.4049 96.9412 19.5522 96.9412 20.7485V71.2664ZM51.5 25.259C47.3059 25.259 43.2059 26.37 39.7186 28.4517C36.2314 30.5333 33.5133 33.492 31.9083 36.9536C30.3033 40.4152 29.8833 44.2242 30.7016 47.8991C31.5198 51.5739 33.5395 54.9494 36.5052 57.5988C39.4709 60.2482 43.2494 62.0525 47.3629 62.7835C51.4765 63.5144 55.7403 63.1393 59.6151 61.7054C63.49 60.2716 66.8019 57.8434 69.132 54.7281C71.4622 51.6127 72.7059 47.95 72.7059 44.2032C72.7059 39.1789 70.4717 34.3604 66.4948 30.8076C62.5179 27.2549 57.1241 25.259 51.5 25.259ZM51.5 57.7348C48.5042 57.7348 45.5757 56.9412 43.0847 55.4543C40.5938 53.9675 38.6524 51.8541 37.5059 49.3815C36.3595 46.909 36.0595 44.1882 36.644 41.5633C37.2284 38.9385 38.6711 36.5274 40.7894 34.6349C42.9078 32.7425 45.6067 31.4538 48.545 30.9316C51.4832 30.4095 54.5288 30.6775 57.2965 31.7017C60.0643 32.7258 62.4299 34.4602 64.0943 36.6855C65.7587 38.9107 66.6471 41.5269 66.6471 44.2032C66.6471 47.792 65.0512 51.2338 62.2106 53.7715C59.37 56.3092 55.5173 57.7348 51.5 57.7348Z" fill="#F5F5F5"/>
</svg>
