<svg width="88" height="63" viewBox="0 0 88 63" fill="none" xmlns="http://www.w3.org/2000/svg">
<path d="M87.2759 4.54568L29.7186 62.2095C29.2127 62.7157 28.527 63 27.812 63C27.097 63 26.4113 62.7157 25.9054 62.2095L0.724112 36.9816C0.247538 36.4692 -0.0119121 35.7915 0.000420339 35.0912C0.0127528 34.3909 0.295905 33.7228 0.790225 33.2276C1.28455 32.7324 1.95144 32.4487 2.6504 32.4363C3.34937 32.424 4.02583 32.6839 4.53728 33.1614L27.812 56.4747L83.4627 0.725456C83.9742 0.248 84.6506 -0.0119341 85.3496 0.000421111C86.0486 0.0127764 86.7155 0.296456 87.2098 0.791691C87.7041 1.28693 87.9873 1.95505 87.9996 2.65531C88.0119 3.35557 87.7525 4.03328 87.2759 4.54568Z" fill="#465A7B"/>
</svg>
