<svg width="33" height="31" viewBox="0 0 33 31" fill="none" xmlns="http://www.w3.org/2000/svg">
<path id="Vector" d="M29.4412 4.0289H24.784L22.4853 0.448216C22.3965 0.310121 22.2762 0.196941 22.1351 0.118743C21.994 0.0405451 21.8364 -0.000244961 21.6765 1.10673e-06H11.3235C11.1636 -0.000244961 11.006 0.0405451 10.8649 0.118743C10.7238 0.196941 10.6035 0.310121 10.5147 0.448216L8.21441 4.0289H3.55882C2.61496 4.0289 1.70976 4.418 1.04236 5.1106C0.374946 5.80321 0 6.74258 0 7.72206V26.5236C0 27.5031 0.374946 28.4425 1.04236 29.1351C1.70976 29.8277 2.61496 30.2168 3.55882 30.2168H29.4412C30.385 30.2168 31.2902 29.8277 31.9576 29.1351C32.6251 28.4425 33 27.5031 33 26.5236V7.72206C33 6.74258 32.6251 5.80321 31.9576 5.1106C31.2902 4.418 30.385 4.0289 29.4412 4.0289ZM31.0588 26.5236C31.0588 26.9688 30.8884 27.3958 30.585 27.7106C30.2817 28.0254 29.8702 28.2023 29.4412 28.2023H3.55882C3.1298 28.2023 2.71834 28.0254 2.41497 27.7106C2.11161 27.3958 1.94118 26.9688 1.94118 26.5236V7.72206C1.94118 7.27684 2.11161 6.84986 2.41497 6.53504C2.71834 6.22022 3.1298 6.04335 3.55882 6.04335H8.73529C8.89526 6.0436 9.05281 6.00281 9.19392 5.92461C9.33504 5.84641 9.45533 5.73323 9.54412 5.59514L11.8428 2.01445H21.1556L23.4559 5.59514C23.5447 5.73323 23.665 5.84641 23.8061 5.92461C23.9472 6.00281 24.1047 6.0436 24.2647 6.04335H29.4412C29.8702 6.04335 30.2817 6.22022 30.585 6.53504C30.8884 6.84986 31.0588 7.27684 31.0588 7.72206V26.5236ZM16.5 9.40077C15.1563 9.40077 13.8427 9.81428 12.7254 10.589C11.6081 11.3637 10.7373 12.4649 10.2231 13.7532C9.70882 15.0415 9.57428 16.4592 9.83643 17.8268C10.0986 19.1945 10.7457 20.4508 11.6958 21.4369C12.646 22.4229 13.8566 23.0944 15.1745 23.3665C16.4925 23.6385 17.8585 23.4989 19.1 22.9652C20.3415 22.4316 21.4026 21.5279 22.1491 20.3684C22.8957 19.209 23.2941 17.8458 23.2941 16.4514C23.2941 14.5814 22.5783 12.7881 21.3042 11.4658C20.03 10.1436 18.3019 9.40077 16.5 9.40077ZM16.5 21.4875C15.5402 21.4875 14.6019 21.1921 13.8039 20.6387C13.0058 20.0854 12.3838 19.2988 12.0165 18.3786C11.6492 17.4584 11.5531 16.4458 11.7403 15.4689C11.9276 14.4919 12.3898 13.5946 13.0685 12.8903C13.7471 12.186 14.6119 11.7063 15.5532 11.512C16.4946 11.3177 17.4704 11.4174 18.3571 11.7986C19.2439 12.1797 20.0018 12.8252 20.5351 13.6534C21.0683 14.4816 21.3529 15.4553 21.3529 16.4514C21.3529 17.787 20.8417 19.068 19.9315 20.0124C19.0214 20.9569 17.7871 21.4875 16.5 21.4875Z" fill="#F5F5F5"/>
</svg>
