<svg width="26" height="26" viewBox="0 0 26 26" fill="none" xmlns="http://www.w3.org/2000/svg">
<path d="M5.25013 2.54669C4.65271 2.54669 4.07976 2.78402 3.65732 3.20646C3.23488 3.6289 2.99756 4.20185 2.99756 4.79927C2.99756 5.39669 3.23488 5.96964 3.65732 6.39208C4.07976 6.81452 4.65271 7.05184 5.25013 7.05184C5.84756 7.05184 6.42051 6.81452 6.84295 6.39208C7.26539 5.96964 7.50271 5.39669 7.50271 4.79927C7.50271 4.20185 7.26539 3.6289 6.84295 3.20646C6.42051 2.78402 5.84756 2.54669 5.25013 2.54669ZM3.13006 8.90691C3.09492 8.90691 3.06122 8.92087 3.03637 8.94572C3.01152 8.97057 2.99756 9.00427 2.99756 9.03941V22.8199C2.99756 22.893 3.05692 22.9524 3.13006 22.9524H7.37021C7.40535 22.9524 7.43905 22.9384 7.4639 22.9136C7.48875 22.8887 7.50271 22.855 7.50271 22.8199V9.03941C7.50271 9.00427 7.48875 8.97057 7.4639 8.94572C7.43905 8.92087 7.40535 8.90691 7.37021 8.90691H3.13006ZM10.0203 8.90691C9.98515 8.90691 9.95145 8.92087 9.9266 8.94572C9.90175 8.97057 9.88779 9.00427 9.88779 9.03941V22.8199C9.88779 22.893 9.94715 22.9524 10.0203 22.9524H14.2604C14.2956 22.9524 14.3293 22.9384 14.3541 22.9136C14.379 22.8887 14.3929 22.855 14.3929 22.8199V15.3996C14.3929 14.8725 14.6023 14.3669 14.9751 13.9942C15.3478 13.6215 15.8534 13.4121 16.3805 13.4121C16.9076 13.4121 17.4132 13.6215 17.7859 13.9942C18.1587 14.3669 18.3681 14.8725 18.3681 15.3996V22.8199C18.3681 22.893 18.4274 22.9524 18.5006 22.9524H22.7407C22.7759 22.9524 22.8096 22.9384 22.8344 22.9136C22.8593 22.8887 22.8732 22.855 22.8732 22.8199V13.6824C22.8732 11.1097 20.6366 9.09771 18.0766 9.32986C17.2845 9.40197 16.5086 9.59798 15.7774 9.91076L14.3929 10.5044V9.03941C14.3929 9.00427 14.379 8.97057 14.3541 8.94572C14.3293 8.92087 14.2956 8.90691 14.2604 8.90691H10.0203Z" fill="white"/>
</svg>
