<svg width="62" height="62" viewBox="0 0 62 62" fill="none" xmlns="http://www.w3.org/2000/svg">
<path d="M50.9906 10.3252H10.1982C7.3937 10.3252 5.12462 12.6485 5.12462 15.488L5.09912 46.4648C5.09912 49.3043 7.3937 51.6276 10.1982 51.6276H50.9906C53.7951 51.6276 56.0897 49.3043 56.0897 46.4648V15.488C56.0897 12.6485 53.7951 10.3252 50.9906 10.3252ZM49.9708 21.2961L31.9457 32.7059C31.1298 33.2222 30.059 33.2222 29.2432 32.7059L11.218 21.2961C10.9623 21.1508 10.7385 20.9545 10.5599 20.7191C10.3814 20.4836 10.2519 20.214 10.1792 19.9264C10.1066 19.6388 10.0924 19.3393 10.1374 19.0459C10.1824 18.7526 10.2857 18.4716 10.4411 18.2199C10.5965 17.9682 10.8007 17.751 11.0414 17.5815C11.2821 17.412 11.5542 17.2937 11.8413 17.2338C12.1285 17.1739 12.4246 17.1736 12.7119 17.2329C12.9992 17.2922 13.2715 17.4099 13.5126 17.5789L30.5944 28.395L47.6762 17.5789C47.9173 17.4099 48.1896 17.2922 48.4769 17.2329C48.7642 17.1736 49.0603 17.1739 49.3475 17.2338C49.6346 17.2937 49.9067 17.412 50.1474 17.5815C50.3881 17.751 50.5923 17.9682 50.7477 18.2199C50.9031 18.4716 51.0064 18.7526 51.0514 19.0459C51.0964 19.3393 51.0822 19.6388 51.0096 19.9264C50.9369 20.214 50.8074 20.4836 50.6289 20.7191C50.4503 20.9545 50.2265 21.1508 49.9708 21.2961Z" fill="#456297"/>
</svg>
