<svg width="27" height="26" viewBox="0 0 27 26" fill="none" xmlns="http://www.w3.org/2000/svg">
<path d="M13.5917 17.5197C14.7163 17.5197 15.7948 17.073 16.5899 16.2778C17.3851 15.4826 17.8318 14.4041 17.8318 13.2796C17.8318 12.155 17.3851 11.0765 16.5899 10.2813C15.7948 9.48616 14.7163 9.03943 13.5917 9.03943C12.4671 9.03943 11.3887 9.48616 10.5935 10.2813C9.79829 11.0765 9.35156 12.155 9.35156 13.2796C9.35156 14.4041 9.79829 15.4826 10.5935 16.2778C11.3887 17.073 12.4671 17.5197 13.5917 17.5197Z" stroke="white" stroke-width="1.3629" stroke-linecap="round" stroke-linejoin="round"/>
<path d="M4.05127 17.5197V9.03944C4.05127 7.63374 4.60968 6.28562 5.60366 5.29164C6.59763 4.29767 7.94575 3.73926 9.35145 3.73926H17.8317C19.2374 3.73926 20.5856 4.29767 21.5795 5.29164C22.5735 6.28562 23.1319 7.63374 23.1319 9.03944V17.5197C23.1319 18.9254 22.5735 20.2735 21.5795 21.2675C20.5856 22.2615 19.2374 22.8199 17.8317 22.8199H9.35145C7.94575 22.8199 6.59763 22.2615 5.60366 21.2675C4.60968 20.2735 4.05127 18.9254 4.05127 17.5197Z" stroke="white" stroke-width="1.3629"/>
<path d="M19.4219 7.4601L19.4326 7.4483" stroke="white" stroke-width="1.3629" stroke-linecap="round" stroke-linejoin="round"/>
</svg>
