<svg width="29" height="29" viewBox="0 0 29 29" fill="none" xmlns="http://www.w3.org/2000/svg">
<path fill-rule="evenodd" clip-rule="evenodd" d="M24.8072 15.1404C24.9769 14.9705 25.0723 14.7401 25.0723 14.5C25.0723 14.2598 24.9769 14.0295 24.8072 13.8596L17.5572 6.60956C17.4743 6.52052 17.3742 6.4491 17.263 6.39957C17.1519 6.35004 17.0319 6.32341 16.9102 6.32126C16.7885 6.31911 16.6676 6.3415 16.5548 6.38708C16.442 6.43266 16.3394 6.5005 16.2534 6.58655C16.1673 6.67261 16.0995 6.77512 16.0539 6.88796C16.0083 7.00081 15.986 7.12167 15.9881 7.24336C15.9902 7.36504 16.0169 7.48504 16.0664 7.59621C16.1159 7.70738 16.1874 7.80743 16.2764 7.89039L21.9797 13.5937L4.83348 13.5937C4.59313 13.5937 4.36262 13.6892 4.19267 13.8592C4.02271 14.0291 3.92723 14.2596 3.92723 14.5C3.92723 14.7403 4.02271 14.9708 4.19267 15.1408C4.36262 15.3107 4.59313 15.4062 4.83348 15.4062H21.9797L16.2764 21.1096C16.1874 21.1925 16.1159 21.2926 16.0664 21.4037C16.0169 21.5149 15.9902 21.6349 15.9881 21.7566C15.986 21.8783 16.0083 21.9991 16.0539 22.112C16.0995 22.2248 16.1673 22.3273 16.2534 22.4134C16.3394 22.4995 16.442 22.5673 16.5548 22.6129C16.6676 22.6585 16.7885 22.6808 16.9102 22.6787C17.0319 22.6765 17.1519 22.6499 17.263 22.6004C17.3742 22.5508 17.4743 22.4794 17.5572 22.3904L24.8072 15.1404Z" fill="black"/>
</svg>
