<svg width="46" height="56" viewBox="0 0 46 56" fill="none" xmlns="http://www.w3.org/2000/svg">
<g filter="url(#filter0_dd_513_196)">
<path d="M41.3333 47.3333L4.66659 24L41.3333 0.666626V47.3333ZM34.6666 12.8L17.0999 24L34.6666 35.2V12.8Z" fill="#456297"/>
<path d="M41.3333 47.3333L4.66659 24L41.3333 0.666626V47.3333ZM34.6666 12.8L17.0999 24L34.6666 35.2V12.8Z" fill="black" fill-opacity="0.2"/>
<path d="M41.3333 47.3333L4.66659 24L41.3333 0.666626V47.3333ZM34.6666 12.8L17.0999 24L34.6666 35.2V12.8Z" fill="black" fill-opacity="0.2"/>
<path d="M41.3333 47.3333L4.66659 24L41.3333 0.666626V47.3333ZM34.6666 12.8L17.0999 24L34.6666 35.2V12.8Z" fill="black" fill-opacity="0.2"/>
<path d="M41.3333 47.3333L4.66659 24L41.3333 0.666626V47.3333ZM34.6666 12.8L17.0999 24L34.6666 35.2V12.8Z" fill="black" fill-opacity="0.2"/>
<path d="M34.3978 12.3784L35.1666 11.8882V12.8V35.2V36.1117L34.3978 35.6216L16.8311 24.4216L16.1699 24L16.8311 23.5784L34.3978 12.3784ZM40.8333 1.57746L5.5979 24L40.8333 46.4225V1.57746Z" stroke="black"/>
</g>
<defs>
<filter id="filter0_dd_513_196" x="0.666504" y="0.666626" width="44.6667" height="54.6667" filterUnits="userSpaceOnUse" color-interpolation-filters="sRGB">
<feFlood flood-opacity="0" result="BackgroundImageFix"/>
<feColorMatrix in="SourceAlpha" type="matrix" values="0 0 0 0 0 0 0 0 0 0 0 0 0 0 0 0 0 0 127 0" result="hardAlpha"/>
<feOffset dy="4"/>
<feGaussianBlur stdDeviation="2"/>
<feComposite in2="hardAlpha" operator="out"/>
<feColorMatrix type="matrix" values="0 0 0 0 0 0 0 0 0 0 0 0 0 0 0 0 0 0 0.25 0"/>
<feBlend mode="normal" in2="BackgroundImageFix" result="effect1_dropShadow_513_196"/>
<feColorMatrix in="SourceAlpha" type="matrix" values="0 0 0 0 0 0 0 0 0 0 0 0 0 0 0 0 0 0 127 0" result="hardAlpha"/>
<feOffset dy="4"/>
<feGaussianBlur stdDeviation="2"/>
<feComposite in2="hardAlpha" operator="out"/>
<feColorMatrix type="matrix" values="0 0 0 0 0 0 0 0 0 0 0 0 0 0 0 0 0 0 0.25 0"/>
<feBlend mode="normal" in2="effect1_dropShadow_513_196" result="effect2_dropShadow_513_196"/>
<feBlend mode="normal" in="SourceGraphic" in2="effect2_dropShadow_513_196" result="shape"/>
</filter>
</defs>
</svg>
